<svg xmlns="http://www.w3.org/2000/svg" xmlns:xlink="http://www.w3.org/1999/xlink" width="100" zoomAndPan="magnify" viewBox="0 0 75 74.999997" height="100" preserveAspectRatio="xMidYMid meet" version="1.0"><defs><clipPath id="56bbae6200"><path d="M 1.988281 2.1875 L 73 2.1875 L 73 73.199219 L 1.988281 73.199219 Z M 1.988281 2.1875 " clip-rule="nonzero"/></clipPath><clipPath id="2abd1ea0a4"><path d="M 37.492188 73.199219 C 57.101562 73.199219 73 57.300781 73 37.691406 C 73 18.082031 57.101562 2.1875 37.492188 2.1875 C 17.882812 2.1875 1.988281 18.082031 1.988281 37.691406 C 1.988281 57.300781 17.882812 73.199219 37.492188 73.199219 Z M 37.492188 73.199219 " clip-rule="nonzero"/></clipPath><clipPath id="87635593ad"><path d="M 9.878906 10.078125 L 69.550781 10.078125 L 69.550781 69.75 L 9.878906 69.75 Z M 9.878906 10.078125 " clip-rule="nonzero"/></clipPath><clipPath id="b7170a3739"><path d="M 39.714844 69.75 C 56.191406 69.75 69.550781 56.390625 69.550781 39.914062 C 69.550781 23.433594 56.191406 10.078125 39.714844 10.078125 C 23.234375 10.078125 9.878906 23.433594 9.878906 39.914062 C 9.878906 56.390625 23.234375 69.75 39.714844 69.75 Z M 39.714844 69.75 " clip-rule="nonzero"/></clipPath><clipPath id="8effa01cd0"><path d="M 9.867188 10.066406 L 66.621094 10.066406 L 66.621094 66.820312 L 9.867188 66.820312 Z M 9.867188 10.066406 " clip-rule="nonzero"/></clipPath><clipPath id="aaf8021196"><path d="M 38.246094 66.820312 C 53.914062 66.820312 66.621094 54.117188 66.621094 38.445312 C 66.621094 22.773438 53.914062 10.066406 38.246094 10.066406 C 22.574219 10.066406 9.867188 22.773438 9.867188 38.445312 C 9.867188 54.117188 22.574219 66.820312 38.246094 66.820312 Z M 38.246094 66.820312 " clip-rule="nonzero"/></clipPath><clipPath id="f238cb0a05"><path d="M 16.429688 18.085938 L 57.679688 18.085938 L 57.679688 66.835938 L 16.429688 66.835938 Z M 16.429688 18.085938 " clip-rule="nonzero"/></clipPath><clipPath id="53298f85bf"><path d="M 37.5 34.210938 L 58.277344 34.210938 L 58.277344 58.558594 L 37.5 58.558594 Z M 37.5 34.210938 " clip-rule="nonzero"/></clipPath><clipPath id="34d237a6c3"><path d="M 41.25 34.210938 L 54.527344 34.210938 C 56.597656 34.210938 58.277344 35.890625 58.277344 37.960938 L 58.277344 54.777344 C 58.277344 56.847656 56.597656 58.527344 54.527344 58.527344 L 41.25 58.527344 C 39.179688 58.527344 37.5 56.847656 37.5 54.777344 L 37.5 37.960938 C 37.5 35.890625 39.179688 34.210938 41.25 34.210938 Z M 41.25 34.210938 " clip-rule="nonzero"/></clipPath><clipPath id="41529ccd11"><path d="M 36.609375 38.453125 L 62.09375 38.453125 L 62.09375 58.703125 L 36.609375 58.703125 Z M 36.609375 38.453125 " clip-rule="nonzero"/></clipPath><clipPath id="8f8750dd12"><path d="M 35.984375 38.453125 L 61.46875 38.453125 L 61.46875 58.703125 L 35.984375 58.703125 Z M 35.984375 38.453125 " clip-rule="nonzero"/></clipPath></defs><g clip-path="url(#56bbae6200)"><g clip-path="url(#2abd1ea0a4)"><path fill="#3e6606" d="M 73 73.199219 L 1.988281 73.199219 L 1.988281 2.1875 L 73 2.1875 Z M 73 73.199219 " fill-opacity="1" fill-rule="nonzero"/></g></g><g clip-path="url(#87635593ad)"><g clip-path="url(#b7170a3739)"><path fill="#3e6606" d="M 69.550781 69.75 L 9.878906 69.75 L 9.878906 10.078125 L 69.550781 10.078125 Z M 69.550781 69.75 " fill-opacity="1" fill-rule="nonzero"/></g></g><g clip-path="url(#8effa01cd0)"><g clip-path="url(#aaf8021196)"><path fill="#ffffff" d="M 66.621094 66.820312 L 9.867188 66.820312 L 9.867188 10.066406 L 66.621094 10.066406 Z M 66.621094 66.820312 " fill-opacity="1" fill-rule="nonzero"/></g></g><g clip-path="url(#f238cb0a05)"><path fill="#3e6606" d="M 38.972656 55.261719 C 38.496094 55.882812 38.648438 56.21875 39.421875 56.273438 C 44.570312 56.152344 49.425781 53.847656 52.765625 49.925781 C 56.109375 46.007812 57.609375 40.835938 56.902344 35.730469 C 51.535156 42.699219 38.734375 43.394531 37.296875 52.179688 C 36.90625 45.910156 36.710938 39.640625 37.339844 33.390625 C 42.164062 26.730469 46.050781 23.34375 53.722656 20.785156 C 44.753906 19.425781 39.191406 22.898438 37.046875 31.171875 C 37.65625 24.441406 34.792969 20.25 28.1875 18.085938 C 32.988281 21.679688 34.433594 26.042969 36.1875 31.867188 C 35.730469 35.644531 35.46875 39.453125 35.335938 43.253906 C 34.695312 40.019531 32.910156 37.058594 30.332031 34.839844 C 26.652344 31.691406 21.109375 30.265625 16.441406 31.5625 C 23.667969 35.371094 19.390625 47.761719 33.957031 47.367188 C 32.429688 42.632812 29.273438 37.875 24.417969 35.503906 C 28.730469 36.484375 32.289062 40.109375 34.269531 44.191406 C 35.632812 46.976562 35.273438 50.222656 35.195312 53.289062 C 35.054688 59.160156 35.488281 63.339844 35.6875 69.207031 L 38.34375 69.171875 C 38.191406 64.546875 36.121094 55.609375 38.929688 52.09375 C 41.359375 49.054688 45.386719 45.855469 49.816406 44.308594 C 46.210938 46.519531 41.347656 51.277344 38.972656 55.261719 " fill-opacity="1" fill-rule="evenodd"/></g><g clip-path="url(#53298f85bf)"><g clip-path="url(#34d237a6c3)"><path fill="#ffffff" d="M 37.5 34.210938 L 58.277344 34.210938 L 58.277344 58.558594 L 37.5 58.558594 Z M 37.5 34.210938 " fill-opacity="1" fill-rule="nonzero"/></g></g><g clip-path="url(#41529ccd11)"><path fill="#ff780d" d="M 37.105469 53.0625 C 38.515625 53.0625 39.921875 53.0625 41.332031 53.0625 C 41.574219 53.0625 41.769531 52.898438 41.839844 52.671875 C 42.722656 49.855469 43.601562 47.039062 44.484375 44.222656 C 44.144531 44.222656 43.804688 44.222656 43.464844 44.222656 C 44.519531 47.15625 45.578125 50.089844 46.632812 53.027344 C 46.800781 53.492188 47.515625 53.566406 47.652344 53.027344 C 48.828125 48.386719 50 43.75 51.175781 39.113281 C 50.835938 39.113281 50.496094 39.113281 50.15625 39.113281 C 51.269531 45.453125 52.386719 51.792969 53.5 58.132812 C 53.578125 58.574219 54.273438 58.65625 54.46875 58.257812 C 55.316406 56.507812 56.164062 54.753906 57.011719 53 C 57.222656 52.566406 56.355469 53.0625 56.925781 53.0625 C 57.480469 53.0625 58.039062 53.0625 58.59375 53.0625 C 59.589844 53.0625 60.585938 53.0625 61.582031 53.0625 C 62.265625 53.0625 62.265625 52.003906 61.582031 52.003906 C 59.941406 52.003906 58.296875 52.003906 56.652344 52.003906 C 56.476562 52.003906 56.277344 52.101562 56.195312 52.265625 C 55.316406 54.085938 54.4375 55.90625 53.554688 57.726562 C 53.878906 57.765625 54.199219 57.808594 54.519531 57.851562 C 53.40625 51.511719 52.289062 45.171875 51.175781 38.832031 C 51.082031 38.304688 50.277344 38.347656 50.15625 38.832031 C 48.980469 43.46875 47.808594 48.109375 46.632812 52.746094 C 46.972656 52.746094 47.3125 52.746094 47.652344 52.746094 C 46.597656 49.808594 45.539062 46.875 44.484375 43.941406 C 44.308594 43.453125 43.625 43.421875 43.464844 43.941406 C 42.582031 46.757812 41.703125 49.574219 40.824219 52.394531 C 40.992188 52.261719 41.164062 52.132812 41.332031 52.003906 C 39.921875 52.003906 38.515625 52.003906 37.105469 52.003906 C 36.425781 52.003906 36.425781 53.0625 37.105469 53.0625 Z M 37.105469 53.0625 " fill-opacity="1" fill-rule="nonzero"/></g><g clip-path="url(#8f8750dd12)"><path fill="#3e6606" d="M 36.480469 53.0625 C 37.890625 53.0625 39.296875 53.0625 40.707031 53.0625 C 40.949219 53.0625 41.148438 52.898438 41.21875 52.671875 C 42.097656 49.855469 42.976562 47.039062 43.859375 44.222656 C 43.519531 44.222656 43.179688 44.222656 42.839844 44.222656 C 43.894531 47.15625 44.953125 50.089844 46.007812 53.027344 C 46.175781 53.492188 46.890625 53.566406 47.027344 53.027344 C 48.203125 48.386719 49.375 43.75 50.550781 39.113281 C 50.210938 39.113281 49.871094 39.113281 49.53125 39.113281 C 50.648438 45.453125 51.761719 51.792969 52.878906 58.132812 C 52.953125 58.574219 53.652344 58.65625 53.84375 58.257812 C 54.691406 56.507812 55.539062 54.753906 56.386719 53 C 56.597656 52.566406 55.730469 53.0625 56.300781 53.0625 C 56.855469 53.0625 57.414062 53.0625 57.96875 53.0625 C 58.964844 53.0625 59.960938 53.0625 60.957031 53.0625 C 61.640625 53.0625 61.640625 52.003906 60.957031 52.003906 C 59.316406 52.003906 57.671875 52.003906 56.027344 52.003906 C 55.851562 52.003906 55.652344 52.101562 55.570312 52.265625 C 54.691406 54.085938 53.8125 55.90625 52.929688 57.726562 C 53.253906 57.765625 53.574219 57.808594 53.894531 57.851562 C 52.78125 51.511719 51.664062 45.171875 50.550781 38.832031 C 50.457031 38.304688 49.652344 38.347656 49.53125 38.832031 C 48.355469 43.46875 47.183594 48.109375 46.007812 52.746094 C 46.347656 52.746094 46.6875 52.746094 47.027344 52.746094 C 45.972656 49.808594 44.914062 46.875 43.859375 43.941406 C 43.683594 43.453125 43 43.421875 42.839844 43.941406 C 41.960938 46.757812 41.078125 49.574219 40.199219 52.394531 C 40.367188 52.261719 40.539062 52.132812 40.707031 52.003906 C 39.296875 52.003906 37.890625 52.003906 36.480469 52.003906 C 35.800781 52.003906 35.800781 53.0625 36.480469 53.0625 Z M 36.480469 53.0625 " fill-opacity="1" fill-rule="nonzero"/></g><path stroke-linecap="butt" transform="matrix(0, 0.75, -0.75, 0, 37.665284, 51.855717)" fill="none" stroke-linejoin="miter" d="M -0.00033122 1.001629 L 3.343419 1.001629 " stroke="#3e6606" stroke-width="2" stroke-opacity="1" stroke-miterlimit="4"/></svg>