<svg xmlns="http://www.w3.org/2000/svg" xmlns:xlink="http://www.w3.org/1999/xlink" width="100" zoomAndPan="magnify" viewBox="0 0 75 74.999997" height="100" preserveAspectRatio="xMidYMid meet" version="1.0"><defs><clipPath id="174719421f"><path d="M 1.988281 2.1875 L 73 2.1875 L 73 73.199219 L 1.988281 73.199219 Z M 1.988281 2.1875 " clip-rule="nonzero"/></clipPath><clipPath id="e523d64b35"><path d="M 37.492188 73.199219 C 57.101562 73.199219 73 57.300781 73 37.691406 C 73 18.082031 57.101562 2.1875 37.492188 2.1875 C 17.882812 2.1875 1.988281 18.082031 1.988281 37.691406 C 1.988281 57.300781 17.882812 73.199219 37.492188 73.199219 Z M 37.492188 73.199219 " clip-rule="nonzero"/></clipPath><clipPath id="263f0cea38"><path d="M 9.878906 10.078125 L 69.550781 10.078125 L 69.550781 69.75 L 9.878906 69.75 Z M 9.878906 10.078125 " clip-rule="nonzero"/></clipPath><clipPath id="54410b50d9"><path d="M 39.714844 69.75 C 56.191406 69.75 69.550781 56.390625 69.550781 39.914062 C 69.550781 23.433594 56.191406 10.078125 39.714844 10.078125 C 23.234375 10.078125 9.878906 23.433594 9.878906 39.914062 C 9.878906 56.390625 23.234375 69.75 39.714844 69.75 Z M 39.714844 69.75 " clip-rule="nonzero"/></clipPath><clipPath id="a6056b8563"><path d="M 9.113281 9.3125 L 65.867188 9.3125 L 65.867188 66.066406 L 9.113281 66.066406 Z M 9.113281 9.3125 " clip-rule="nonzero"/></clipPath><clipPath id="4f904e6d5d"><path d="M 37.492188 66.066406 C 53.160156 66.066406 65.867188 53.363281 65.867188 37.691406 C 65.867188 22.019531 53.160156 9.3125 37.492188 9.3125 C 21.820312 9.3125 9.113281 22.019531 9.113281 37.691406 C 9.113281 53.363281 21.820312 66.066406 37.492188 66.066406 Z M 37.492188 66.066406 " clip-rule="nonzero"/></clipPath><clipPath id="bf30d97bde"><path d="M 16.902344 17.769531 L 58 17.769531 L 58 66.519531 L 16.902344 66.519531 Z M 16.902344 17.769531 " clip-rule="nonzero"/></clipPath><clipPath id="6f61f15316"><path d="M 37.5 34.210938 L 58.277344 34.210938 L 58.277344 58.558594 L 37.5 58.558594 Z M 37.5 34.210938 " clip-rule="nonzero"/></clipPath><clipPath id="6ad85bb3f5"><path d="M 41.25 34.210938 L 54.527344 34.210938 C 56.597656 34.210938 58.277344 35.890625 58.277344 37.960938 L 58.277344 54.777344 C 58.277344 56.847656 56.597656 58.527344 54.527344 58.527344 L 41.25 58.527344 C 39.179688 58.527344 37.5 56.847656 37.5 54.777344 L 37.5 37.960938 C 37.5 35.890625 39.179688 34.210938 41.25 34.210938 Z M 41.25 34.210938 " clip-rule="nonzero"/></clipPath><clipPath id="f8da28c09a"><path d="M 36.609375 37.992188 L 62.84375 37.992188 L 62.84375 58.242188 L 36.609375 58.242188 Z M 36.609375 37.992188 " clip-rule="nonzero"/></clipPath><clipPath id="e8311b541d"><path d="M 35.984375 37.5 L 62.96875 37.5 L 62.96875 58.5 L 35.984375 58.5 Z M 35.984375 37.5 " clip-rule="nonzero"/></clipPath></defs><g clip-path="url(#174719421f)"><g clip-path="url(#e523d64b35)"><path fill="#3e6606" d="M 73 73.199219 L 1.988281 73.199219 L 1.988281 2.1875 L 73 2.1875 Z M 73 73.199219 " fill-opacity="1" fill-rule="nonzero"/></g></g><g clip-path="url(#263f0cea38)"><g clip-path="url(#54410b50d9)"><path fill="#3e6606" d="M 69.550781 69.75 L 9.878906 69.75 L 9.878906 10.078125 L 69.550781 10.078125 Z M 69.550781 69.75 " fill-opacity="1" fill-rule="nonzero"/></g></g><g clip-path="url(#a6056b8563)"><g clip-path="url(#4f904e6d5d)"><path fill="#ffffff" d="M 65.867188 66.066406 L 9.113281 66.066406 L 9.113281 9.3125 L 65.867188 9.3125 Z M 65.867188 66.066406 " fill-opacity="1" fill-rule="nonzero"/></g></g><g clip-path="url(#bf30d97bde)"><path fill="#3e6606" d="M 39.445312 54.945312 C 38.964844 55.566406 39.117188 55.902344 39.890625 55.957031 C 45.039062 55.835938 49.894531 53.53125 53.238281 49.609375 C 56.578125 45.691406 58.082031 40.519531 57.375 35.414062 C 52.007812 42.382812 39.207031 43.078125 37.769531 51.863281 C 37.375 45.59375 37.179688 39.324219 37.8125 33.074219 C 42.632812 26.414062 46.519531 23.027344 54.195312 20.46875 C 45.226562 19.109375 39.664062 22.582031 37.519531 30.855469 C 38.128906 24.125 35.265625 19.933594 28.65625 17.769531 C 33.457031 21.363281 34.90625 25.726562 36.65625 31.550781 C 36.199219 35.328125 35.941406 39.136719 35.808594 42.9375 C 35.167969 39.703125 33.382812 36.742188 30.800781 34.523438 C 27.121094 31.375 21.582031 29.949219 16.910156 31.246094 C 24.140625 35.054688 19.859375 47.445312 34.425781 47.050781 C 32.902344 42.316406 29.746094 37.558594 24.890625 35.1875 C 29.199219 36.167969 32.761719 39.792969 34.742188 43.875 C 36.101562 46.660156 35.742188 49.90625 35.667969 52.972656 C 35.527344 58.84375 35.960938 63.023438 36.15625 68.890625 L 38.8125 68.855469 C 38.660156 64.230469 36.59375 55.292969 39.402344 51.777344 C 41.828125 48.738281 45.855469 45.539062 50.289062 43.992188 C 46.683594 46.203125 41.816406 50.960938 39.445312 54.945312 " fill-opacity="1" fill-rule="evenodd"/></g><g clip-path="url(#6f61f15316)"><g clip-path="url(#6ad85bb3f5)"><path fill="#ffffff" d="M 37.5 34.210938 L 58.277344 34.210938 L 58.277344 58.558594 L 37.5 58.558594 Z M 37.5 34.210938 " fill-opacity="1" fill-rule="nonzero"/></g></g><g clip-path="url(#f8da28c09a)"><path fill="#ff780d" d="M 37.117188 52.941406 C 38.558594 52.941406 40 52.941406 41.441406 52.941406 C 41.6875 52.941406 41.890625 52.773438 41.960938 52.542969 C 42.863281 49.660156 43.761719 46.777344 44.664062 43.894531 C 44.316406 43.894531 43.96875 43.894531 43.621094 43.894531 C 44.703125 46.898438 45.785156 49.902344 46.863281 52.902344 C 47.035156 53.382812 47.765625 53.453125 47.90625 52.902344 C 49.109375 48.160156 50.308594 43.414062 51.507812 38.671875 C 51.160156 38.671875 50.816406 38.671875 50.46875 38.671875 C 51.609375 45.15625 52.75 51.640625 53.890625 58.128906 C 53.96875 58.582031 54.679688 58.664062 54.878906 58.257812 C 55.746094 56.464844 56.613281 54.671875 57.480469 52.878906 C 57.695312 52.433594 56.808594 52.941406 57.394531 52.941406 C 57.960938 52.941406 58.53125 52.941406 59.097656 52.941406 C 60.117188 52.941406 61.136719 52.941406 62.15625 52.941406 C 62.855469 52.941406 62.855469 51.859375 62.15625 51.859375 C 60.476562 51.859375 58.792969 51.859375 57.113281 51.859375 C 56.933594 51.859375 56.726562 51.957031 56.648438 52.125 C 55.746094 53.988281 54.84375 55.847656 53.945312 57.710938 C 54.273438 57.753906 54.601562 57.796875 54.933594 57.839844 C 53.792969 51.355469 52.652344 44.871094 51.507812 38.382812 C 51.414062 37.84375 50.59375 37.890625 50.46875 38.382812 C 49.265625 43.128906 48.066406 47.871094 46.863281 52.617188 C 47.210938 52.617188 47.558594 52.617188 47.90625 52.617188 C 46.824219 49.613281 45.746094 46.609375 44.664062 43.609375 C 44.484375 43.109375 43.789062 43.078125 43.621094 43.609375 C 42.722656 46.492188 41.820312 49.375 40.917969 52.253906 C 41.09375 52.125 41.265625 51.992188 41.441406 51.859375 C 40 51.859375 38.558594 51.859375 37.117188 51.859375 C 36.421875 51.859375 36.421875 52.941406 37.117188 52.941406 Z M 37.117188 52.941406 " fill-opacity="1" fill-rule="nonzero"/></g><g clip-path="url(#e8311b541d)"><path fill="#3e6606" d="M 36.503906 52.804688 C 37.980469 52.804688 39.457031 52.804688 40.929688 52.804688 C 41.183594 52.804688 41.390625 52.636719 41.464844 52.398438 C 42.386719 49.449219 43.308594 46.496094 44.230469 43.546875 C 43.875 43.546875 43.519531 43.546875 43.164062 43.546875 C 44.269531 46.621094 45.378906 49.695312 46.484375 52.769531 C 46.660156 53.257812 47.40625 53.332031 47.550781 52.769531 C 48.78125 47.910156 50.011719 43.054688 51.238281 38.199219 C 50.882812 38.199219 50.527344 38.199219 50.171875 38.199219 C 51.339844 44.835938 52.507812 51.476562 53.675781 58.117188 C 53.757812 58.582031 54.488281 58.664062 54.6875 58.25 C 55.578125 56.414062 56.464844 54.578125 57.351562 52.742188 C 57.574219 52.285156 56.664062 52.804688 57.261719 52.804688 C 57.84375 52.804688 58.425781 52.804688 59.007812 52.804688 C 60.054688 52.804688 61.097656 52.804688 62.140625 52.804688 C 62.855469 52.804688 62.855469 51.699219 62.140625 51.699219 C 60.417969 51.699219 58.699219 51.699219 56.976562 51.699219 C 56.792969 51.699219 56.582031 51.800781 56.5 51.972656 C 55.578125 53.878906 54.65625 55.785156 53.734375 57.691406 C 54.070312 57.734375 54.40625 57.777344 54.742188 57.824219 C 53.574219 51.183594 52.40625 44.542969 51.238281 37.902344 C 51.140625 37.351562 50.300781 37.398438 50.171875 37.902344 C 48.941406 42.761719 47.714844 47.617188 46.484375 52.472656 C 46.839844 52.472656 47.195312 52.472656 47.550781 52.472656 C 46.445312 49.398438 45.335938 46.324219 44.230469 43.25 C 44.046875 42.742188 43.332031 42.707031 43.164062 43.25 C 42.242188 46.203125 41.320312 49.152344 40.398438 52.105469 C 40.574219 51.96875 40.753906 51.832031 40.929688 51.699219 C 39.457031 51.699219 37.980469 51.699219 36.503906 51.699219 C 35.789062 51.699219 35.789062 52.804688 36.503906 52.804688 Z M 36.503906 52.804688 " fill-opacity="1" fill-rule="nonzero"/></g><path stroke-linecap="butt" transform="matrix(0.0648533, 0.747191, -0.747191, 0.0648533, 37.473217, 50.2909)" fill="none" stroke-linejoin="miter" d="M -0.000316897 0.999255 L 8.93404 1.000992 " stroke="#3e6606" stroke-width="2" stroke-opacity="1" stroke-miterlimit="4"/></svg>