<?xml version="1.0" standalone="no"?>
<!DOCTYPE svg PUBLIC "-//W3C//DTD SVG 20010904//EN"
 "http://www.w3.org/TR/2001/REC-SVG-20010904/DTD/svg10.dtd">
<svg version="1.0" xmlns="http://www.w3.org/2000/svg"
 width="500.000000pt" height="500.000000pt" viewBox="0 0 500.000000 500.000000"
 preserveAspectRatio="xMidYMid meet">

<g transform="translate(0.000000,500.000000) scale(0.100000,-0.100000)"
fill="#000000" stroke="none">
<path d="M2373 4100 c-458 -58 -832 -372 -958 -805 -35 -122 -45 -193 -45
-328 0 -782 783 -1326 1522 -1057 372 136 655 474 723 864 17 101 20 281 5
373 -77 473 -431 842 -900 937 -98 20 -257 27 -347 16z m273 -251 c228 -32
440 -150 581 -324 70 -87 152 -242 178 -340 22 -80 31 -303 16 -390 -70 -403
-416 -720 -817 -751 l-81 -7 -7 29 c-4 16 -9 116 -13 222 l-6 192 55 0 c33 0
59 5 65 13 5 6 22 54 38 105 16 51 32 95 36 98 4 2 24 -42 44 -99 40 -108 53
-133 66 -120 4 4 26 80 49 168 46 181 49 189 54 184 3 -2 21 -96 41 -209 51
-290 55 -310 68 -310 7 0 31 38 54 85 l42 84 78 3 c61 2 78 6 78 18 0 12 -16
16 -70 18 -100 4 -107 1 -140 -68 -16 -33 -30 -58 -33 -56 -2 2 -25 126 -52
276 -26 149 -50 274 -54 277 -15 15 -30 -25 -73 -193 -24 -99 -48 -182 -52
-187 -4 -4 -25 42 -46 103 -29 82 -43 110 -54 108 -10 -2 -29 -47 -56 -131
l-40 -127 -52 0 -51 0 -7 118 c-4 64 -5 195 -2 290 7 195 4 186 97 294 98 114
176 175 305 239 l120 60 -110 -4 c-143 -5 -208 -29 -283 -103 -47 -48 -78
-100 -118 -202 -7 -17 -10 -8 -11 40 -6 146 -62 239 -184 303 l-74 39 51 -56
c59 -65 120 -179 158 -294 26 -79 27 -86 16 -184 -5 -56 -10 -130 -10 -164 0
-86 -13 -98 -33 -32 -57 179 -259 316 -466 316 -95 0 -111 -9 -71 -38 37 -28
70 -84 119 -205 22 -52 53 -116 70 -140 34 -50 106 -100 166 -116 44 -12 155
-15 155 -4 0 3 -18 43 -39 87 -44 92 -128 190 -205 242 -61 41 -41 45 30 5 81
-44 131 -90 184 -169 74 -110 78 -130 83 -488 l4 -312 -41 6 c-78 9 -210 53
-295 97 -205 106 -362 292 -443 525 -33 94 -33 97 -33 280 0 183 0 186 33 280
18 52 49 123 68 157 184 329 551 514 920 462z"/>
<path d="M2900 1580 c-25 -25 -25 -32 0 -55 17 -15 24 -16 46 -7 19 9 25 18
22 39 -4 36 -42 49 -68 23z"/>
<path d="M2499 1561 c-19 -20 -29 -40 -29 -60 0 -21 -5 -31 -15 -31 -9 0 -15
-9 -15 -25 0 -16 6 -25 15 -25 13 0 15 -20 15 -120 l0 -120 35 0 35 0 0 120 0
120 25 0 c20 0 25 5 25 25 0 20 -5 25 -25 25 -15 0 -25 6 -25 14 0 28 12 46
31 46 14 0 19 7 19 30 0 27 -3 30 -31 30 -20 0 -40 -10 -60 -29z"/>
<path d="M3095 1578 c-31 -16 -45 -39 -45 -71 0 -20 -6 -30 -20 -34 -13 -3
-20 -14 -20 -28 0 -14 7 -25 20 -28 19 -5 20 -14 20 -121 l0 -116 35 0 35 0 0
120 0 120 25 0 c20 0 25 5 25 25 0 20 -5 25 -26 25 -22 0 -25 4 -22 28 2 19 9
28 26 30 17 3 22 10 22 33 0 25 -4 29 -27 29 -16 0 -37 -6 -48 -12z"/>
<path d="M1530 1365 l0 -185 95 0 95 0 0 30 0 30 -60 0 -60 0 0 155 0 155 -35
0 -35 0 0 -185z"/>
<path d="M2650 1365 l0 -185 95 0 95 0 0 30 0 30 -60 0 -60 0 0 155 0 155 -35
0 -35 0 0 -185z"/>
<path d="M1847 1470 c-41 -12 -58 -29 -80 -79 -26 -60 -17 -121 27 -168 27
-30 41 -36 84 -41 60 -5 104 10 132 46 28 35 25 42 -20 42 -22 0 -40 -4 -40
-9 0 -15 -53 -29 -76 -20 -25 9 -56 48 -48 61 3 4 52 8 110 8 l104 0 0 31 c0
52 -28 96 -74 119 -45 21 -73 24 -119 10z m100 -72 c40 -38 30 -48 -47 -48
-63 0 -70 2 -70 19 0 25 36 51 69 51 14 0 35 -10 48 -22z"/>
<path d="M2161 1462 c-48 -24 -73 -62 -78 -119 -6 -61 23 -125 67 -148 42 -22
102 -19 134 6 l26 20 0 -20 c0 -17 6 -21 35 -21 l35 0 0 145 0 145 -35 0 c-24
0 -35 -5 -35 -15 0 -12 -6 -12 -37 5 -46 25 -68 25 -112 2z m102 -54 c34 -18
46 -39 47 -81 0 -90 -106 -119 -148 -40 -20 37 -14 73 17 104 32 31 50 35 84
17z"/>
<path d="M3297 1470 c-41 -12 -58 -29 -80 -79 -26 -60 -17 -121 27 -168 27
-30 41 -36 84 -41 60 -5 104 10 132 46 28 35 25 42 -20 42 -22 0 -40 -4 -40
-9 0 -15 -53 -29 -76 -20 -25 9 -56 48 -48 61 3 4 52 8 110 8 l104 0 0 31 c0
52 -28 96 -74 119 -45 21 -73 24 -119 10z m100 -72 c40 -38 30 -48 -47 -48
-63 0 -70 2 -70 19 0 25 36 51 69 51 14 0 35 -10 48 -22z"/>
<path d="M2890 1325 l0 -145 35 0 35 0 0 145 0 145 -35 0 -35 0 0 -145z"/>
<path d="M2213 980 c0 -31 2 -41 4 -22 3 23 9 32 23 32 14 0 20 -9 23 -32 l5
-33 -2 35 c-1 28 -5 36 -23 38 -12 2 -24 11 -26 20 -3 9 -4 -8 -4 -38z"/>
<path d="M1542 978 c-2 -44 0 -48 21 -47 16 1 17 3 5 6 -12 3 -18 17 -21 46
l-4 42 -1 -47z"/>
<path d="M1811 998 c-17 -43 31 -85 64 -58 23 19 18 40 -7 39 -18 -1 -19 -2
-5 -6 22 -6 17 -27 -8 -32 -27 -5 -47 26 -34 51 8 16 17 19 40 14 19 -3 28 -2
24 4 -3 6 -20 10 -36 10 -21 0 -32 -6 -38 -22z"/>
<path d="M2158 1007 c-7 -21 6 -70 20 -73 7 -1 8 0 2 3 -12 6 -13 50 -1 55 5
2 3 8 -4 15 -10 9 -14 9 -17 0z"/>
<path d="M2353 975 c0 -27 2 -40 4 -27 3 15 11 22 28 22 17 0 25 -7 28 -22 2
-13 4 0 4 27 0 28 -2 40 -4 28 -3 -16 -11 -23 -28 -23 -17 0 -25 7 -28 23 -2
12 -4 0 -4 -28z"/>
<path d="M2812 980 c2 -28 8 -45 18 -48 12 -4 13 -2 3 9 -16 16 -17 46 -2 51
7 2 5 9 -6 18 -15 12 -16 10 -13 -30z"/>
<path d="M2896 1005 c-4 -10 3 -20 19 -27 32 -14 34 -43 4 -35 -16 4 -19 3
-11 -5 14 -14 42 -3 42 16 0 9 -9 20 -20 26 -11 6 -20 16 -20 22 0 5 9 8 20 5
11 -3 20 -1 20 4 0 15 -48 10 -54 -6z"/>
<path d="M3452 990 c0 -19 2 -27 5 -17 2 9 2 25 0 35 -3 9 -5 1 -5 -18z"/>
<path d="M1601 982 c-12 -23 4 -52 29 -52 25 0 41 30 29 53 -13 22 -46 22 -58
-1z m52 -4 c7 -21 -4 -38 -23 -38 -10 0 -20 6 -23 13 -7 20 4 37 23 37 10 0
20 -6 23 -12z"/>
<path d="M1683 984 c-9 -24 11 -49 37 -48 16 1 20 -4 17 -18 -3 -10 -1 -16 4
-12 5 3 9 24 9 47 0 40 -2 43 -30 45 -21 2 -33 -3 -37 -14z m55 -17 c4 -20
-25 -34 -40 -19 -15 15 -1 44 19 40 10 -2 19 -11 21 -21z"/>
<path d="M1911 963 c1 -28 3 -31 6 -13 3 14 10 31 15 38 8 9 6 12 -6 12 -12 0
-16 -9 -15 -37z"/>
<path d="M1964 986 c-10 -26 1 -51 22 -54 27 -4 47 21 39 48 -7 24 -53 28 -61
6z m51 -21 c0 -30 -39 -27 -43 3 -3 20 0 23 20 20 15 -2 23 -10 23 -23z"/>
<path d="M2041 999 c-1 -3 4 -20 10 -37 11 -32 30 -35 28 -4 0 13 -2 13 -6 3
-4 -10 -10 -5 -19 15 -7 16 -13 26 -13 23z"/>
<path d="M2080 997 c0 -2 7 -19 16 -37 18 -34 25 -30 38 20 5 20 3 20 -8 -5
l-14 -30 -7 28 c-4 15 -11 27 -16 27 -5 0 -9 -2 -9 -3z"/>
<path d="M2443 984 c-9 -25 10 -49 41 -50 23 -1 26 3 26 30 0 28 -3 32 -30 34
-21 2 -33 -3 -37 -14z m55 -17 c4 -20 -25 -34 -40 -19 -15 15 -1 44 19 40 10
-2 19 -11 21 -21z"/>
<path d="M2531 963 c1 -27 3 -31 6 -13 2 14 12 31 21 38 14 11 13 12 -6 12
-19 0 -22 -5 -21 -37z"/>
<path d="M2581 999 c-2 -13 21 -69 29 -69 9 0 32 61 26 68 -3 2 -8 -7 -12 -22
-8 -33 -17 -33 -31 2 -6 15 -11 24 -12 21z"/>
<path d="M2662 983 c-13 -24 2 -53 28 -53 10 0 21 4 24 9 3 4 -6 6 -19 3 -15
-2 -25 0 -25 7 0 6 12 11 26 11 19 0 25 5 22 18 -5 24 -44 28 -56 5z m48 -3
c0 -5 -9 -10 -20 -10 -11 0 -20 5 -20 10 0 6 9 10 20 10 11 0 20 -4 20 -10z"/>
<path d="M2740 986 c0 -8 9 -18 20 -21 26 -8 26 -29 0 -22 -11 3 -18 1 -14 -4
7 -13 31 -11 40 2 4 7 -4 20 -17 31 l-24 20 23 -5 c12 -3 22 -1 22 4 0 5 -11
9 -25 9 -15 0 -25 -6 -25 -14z"/>
<path d="M2971 980 c-1 -36 11 -50 42 -48 24 2 27 6 26 38 l-1 35 -7 -30 c-4
-21 -12 -30 -26 -30 -14 0 -22 9 -26 30 -6 27 -7 27 -8 5z"/>
<path d="M3061 982 c-12 -23 4 -52 29 -52 10 0 21 4 24 9 4 5 -3 7 -15 4 -23
-6 -40 12 -32 34 4 9 15 13 29 10 13 -2 21 0 18 4 -9 15 -43 10 -53 -9z"/>
<path d="M3144 986 c-14 -37 22 -74 47 -49 6 6 1 9 -13 9 -17 -1 -24 5 -26 23
-3 21 0 23 22 19 14 -3 23 -1 20 3 -8 14 -44 10 -50 -5z"/>
<path d="M3224 986 c-15 -38 22 -74 49 -47 7 7 4 8 -10 5 -12 -3 -24 -1 -27 5
-5 7 2 11 17 11 30 0 40 10 26 27 -15 17 -48 17 -55 -1z m46 -6 c0 -5 -9 -10
-20 -10 -11 0 -20 5 -20 10 0 6 9 10 20 10 11 0 20 -4 20 -10z"/>
<path d="M3307 993 c-12 -12 -7 -22 13 -28 26 -8 26 -29 0 -22 -11 3 -18 1
-14 -4 8 -14 44 -10 44 5 0 7 -10 21 -22 30 l-23 17 23 -5 c12 -2 22 0 22 5 0
10 -33 12 -43 2z"/>
<path d="M3377 993 c-12 -12 -7 -22 13 -28 26 -8 26 -29 0 -22 -11 3 -18 1
-14 -4 8 -14 44 -10 44 5 0 7 -10 21 -22 30 l-23 17 23 -5 c12 -2 22 0 22 5 0
10 -33 12 -43 2z"/>
<path d="M2286 935 c-9 -26 -7 -32 5 -12 6 10 9 21 6 23 -2 3 -7 -2 -11 -11z"/>
<path d="M1690 910 c0 -5 5 -10 11 -10 5 0 7 5 4 10 -3 6 -8 10 -11 10 -2 0
-4 -4 -4 -10z"/>
</g>
</svg>
